<svg version="1.1" id="Layer_1" xmlns="http://www.w3.org/2000/svg" xmlns:xlink="http://www.w3.org/1999/xlink" x="0px" y="0px"
	 width="100%" viewBox="0 0 1032 584" enable-background="new 0 0 1032 584" xml:space="preserve">
<path fill="#FCFAFB" opacity="1.000000" stroke="none" 
	d="
M693.000000,585.000000 
	C462.000031,585.000000 231.500076,585.000000 1.000093,585.000000 
	C1.000062,390.333405 1.000062,195.666824 1.000031,1.000171 
	C344.999878,1.000114 688.999756,1.000114 1032.999756,1.000057 
	C1032.999756,195.666504 1032.999756,390.333008 1032.999878,584.999756 
	C919.833313,585.000000 806.666687,585.000000 693.000000,585.000000 
M746.473145,565.646851 
	C746.973938,569.372864 747.352051,573.122070 748.049500,576.810913 
	C748.261536,577.932068 749.354675,578.886658 750.044189,579.917603 
	C750.528076,579.676575 751.011963,579.435608 751.495850,579.194641 
	C750.288940,573.446960 749.082031,567.699341 748.605774,561.790405 
	C751.274231,558.132629 752.306091,553.976318 749.556641,550.261963 
	C745.778992,545.158691 740.059143,547.252319 735.328491,546.960327 
	C735.328491,558.193726 735.328491,568.897949 735.328491,579.602173 
	C735.929199,579.623291 736.529968,579.644470 737.130676,579.665588 
	C737.130676,574.500916 737.130676,569.336182 737.130676,563.509705 
	C740.882202,564.123779 743.445312,564.543396 746.473145,565.646851 
M410.772217,268.714386 
	C410.197388,270.155518 409.622559,271.596619 408.841034,273.818695 
	C408.629242,274.449707 408.312958,275.065887 408.220795,275.713898 
	C404.699280,300.477661 397.274048,323.958221 384.987579,345.800934 
	C373.795776,365.697632 359.750000,383.305756 341.458160,397.095093 
	C331.468994,404.625427 320.743195,411.178589 310.440308,418.111389 
	C318.079468,418.111389 326.041809,418.127655 334.004089,418.108368 
	C359.327057,418.046997 384.650024,417.972321 410.471649,418.067535 
	C410.810425,418.058167 411.149200,418.048828 412.084625,418.743317 
	C425.826324,418.743317 439.568024,418.743317 453.686035,418.743317 
	C453.686035,317.277710 453.686035,216.234222 453.686035,114.125877 
	C456.661163,117.613022 458.927917,120.331573 461.259644,122.993217 
	C479.935364,144.311401 498.666199,165.581436 517.295044,186.940445 
	C534.423279,206.578949 551.412720,226.338577 568.525208,245.990982 
	C583.570251,263.269104 598.743347,280.435791 613.783447,297.718231 
	C633.892456,320.825409 653.928528,343.996063 673.994263,367.140900 
	C686.700989,381.797455 699.333923,396.518951 712.167786,411.063293 
	C714.802307,414.048981 718.048767,418.440643 721.242249,418.647583 
	C734.484009,419.505585 747.813538,419.007812 761.705933,419.007812 
	C761.705933,372.886566 761.705933,327.181091 761.705933,281.105896 
	C764.101807,281.105896 765.903809,281.105927 767.705750,281.105896 
	C812.367371,281.105042 857.029297,281.179718 901.690002,280.980103 
	C905.903320,280.961273 908.498291,282.558289 910.930969,285.455750 
	C914.984070,290.283295 919.068970,295.085663 923.216003,299.832581 
	C936.862122,315.452454 950.579041,331.010529 964.200378,346.651886 
	C984.461731,369.917877 1004.659851,393.238953 1024.915161,416.510254 
	C1025.553467,417.243683 1026.525269,417.687012 1028.450684,419.051636 
	C1028.450684,398.401550 1028.487427,378.954163 1028.377319,359.507599 
	C1028.369019,358.027832 1027.691895,356.211578 1026.697510,355.128204 
	C1008.844788,335.677460 990.767639,316.431580 973.010498,296.894592 
	C960.874146,283.541718 949.093201,269.863220 937.264648,256.233795 
	C920.626709,237.062744 904.122437,217.775681 887.504272,198.587402 
	C870.786743,179.284409 853.985535,160.053955 837.247375,140.768799 
	C821.191406,122.269592 805.178772,103.732788 789.129700,85.227570 
	C771.961182,65.431602 754.539490,45.848324 737.715820,25.763817 
	C731.632996,18.502102 725.620911,13.376192 715.366272,15.187531 
	C710.356384,16.072460 705.061157,15.341831 699.895081,15.342161 
	C695.965149,15.342413 692.035278,15.342212 687.728394,15.342212 
	C687.728394,117.944061 687.728394,219.820908 687.728394,321.697754 
	C685.713074,321.064453 684.726074,319.778748 683.667725,318.554718 
	C665.238708,297.240601 646.844543,275.896118 628.353943,254.635513 
	C605.599792,228.472626 582.710205,202.427490 559.978027,176.245514 
	C537.270691,150.092087 514.712646,123.809044 492.038666,97.626549 
	C471.644257,74.076347 451.288239,50.491043 430.668671,27.139000 
	C425.890747,21.727951 422.513428,13.697949 412.706482,14.397133 
	C412.153137,14.337835 411.599823,14.278539 410.522400,14.071580 
	C410.341034,14.078225 410.159637,14.084871 409.048279,13.993757 
	C351.035828,13.993757 293.023407,13.993757 235.010956,13.993757 
	C235.002548,14.179537 234.994141,14.365316 234.985733,14.551097 
	C239.654541,15.381800 244.323334,16.212503 249.018494,17.840870 
	C250.554596,18.892092 251.963165,20.521168 253.649155,20.893246 
	C260.488495,22.402613 267.394897,23.638905 274.312958,24.749161 
	C278.491882,25.419825 282.737701,25.673697 287.544312,26.092884 
	C288.056061,26.338621 288.567841,26.584358 289.043518,27.641747 
	C289.240509,28.242302 289.324066,29.293566 289.651459,29.375967 
	C294.747070,30.658442 299.874268,31.815546 305.708771,33.118362 
	C337.269684,46.771111 364.148865,67.111862 389.518799,91.943810 
	C387.977295,93.057594 386.515228,94.123840 385.042175,95.174683 
	C384.116302,95.835167 383.173981,96.472603 381.544373,97.044891 
	C380.994202,97.976692 380.444031,98.908485 379.657471,100.397171 
	C378.863068,100.976662 378.068634,101.556152 376.524719,102.101631 
	C375.400177,103.501564 374.275604,104.901505 372.890747,106.768913 
	C372.350983,107.223595 371.811218,107.678268 370.532654,108.119583 
	C370.069183,108.843163 369.605682,109.566742 368.964386,110.931168 
	C367.041901,112.321640 365.119415,113.712112 362.443726,115.101562 
	C360.550812,114.962440 358.627960,114.983482 356.773865,114.636765 
	C355.098480,114.323456 353.498260,113.608215 351.223206,112.899971 
	C349.560089,111.285316 347.953339,109.607460 346.225281,108.065582 
	C323.626282,87.901222 298.085724,72.681190 269.404694,62.913040 
	C252.502228,57.156425 235.100388,52.928318 217.211212,53.247402 
	C202.517792,53.509483 187.859467,55.738968 172.341171,57.014866 
	C170.557602,57.641029 168.774048,58.267189 166.414246,59.194370 
	C165.592407,59.418083 164.770584,59.641792 163.466660,59.527229 
	C162.025040,59.362656 160.553726,58.928970 159.147369,59.084103 
	C154.975235,59.544327 150.335678,59.376492 148.337341,65.194183 
	C138.471588,70.300995 128.441589,75.116974 118.774940,80.576363 
	C99.803856,91.290581 84.190353,106.029221 71.507790,123.528374 
	C55.628624,145.438095 44.958130,169.707214 40.395660,196.681778 
	C36.793373,217.979523 37.486118,239.009720 41.816990,259.966583 
	C46.616070,283.189056 56.406544,304.310394 69.735573,323.901276 
	C87.077957,349.390930 110.141357,368.234680 137.633423,381.492737 
	C154.571747,389.661255 172.539566,395.024414 191.424469,397.394257 
	C220.784866,401.078705 249.444992,399.267609 277.332611,388.897491 
	C296.634644,381.719910 313.539215,370.646881 328.010132,356.149841 
	C343.589783,340.542023 355.330017,322.292664 361.923737,301.104401 
	C364.707489,292.159210 366.577667,282.929749 369.095490,272.904114 
	C326.994843,272.904114 286.277893,272.904114 245.310944,272.904114 
	C245.310944,259.712677 245.310944,247.175995 245.310944,234.129364 
	C247.636810,234.129364 249.599030,234.130630 251.561234,234.129166 
	C303.041748,234.090851 354.522247,234.052261 406.903656,234.135223 
	C408.394775,233.952820 409.885895,233.770416 411.633698,233.835373 
	C411.633698,233.835373 411.921875,234.045151 411.779724,234.907196 
	C411.861908,236.939117 411.944122,238.971024 411.776764,241.814194 
	C411.679047,250.856888 411.581329,259.899567 410.772217,268.714386 
M128.500000,13.987258 
	C89.094688,13.987258 49.689373,13.987258 10.431343,13.987258 
	C10.431343,60.049065 10.431343,105.168388 10.431343,151.669586 
	C42.098511,72.450638 99.268822,27.283964 181.974274,13.987236 
	C164.482849,13.987236 146.991425,13.987236 128.500000,13.987258 
M434.500000,531.983215 
	C632.254272,531.983215 830.008545,531.983215 1028.096924,531.983215 
	C1028.096924,530.998779 1028.096924,529.622559 1028.096924,527.600098 
	C688.937927,527.600098 349.944031,527.600098 10.680958,527.600098 
	C10.839545,529.076111 10.989044,530.467529 11.151876,531.983032 
	C152.207977,531.983032 292.854004,531.983032 434.500000,531.983215 
M9.988940,310.543945 
	C9.983295,344.541199 10.053316,378.538849 9.876744,412.535217 
	C9.854542,416.810181 10.830782,418.291931 15.345063,418.266663 
	C48.508102,418.080872 81.672585,418.153748 114.836601,418.133606 
	C116.211731,418.132751 117.586792,418.017822 119.887611,417.914459 
	C67.436646,392.518677 32.161827,352.566345 10.033868,299.911560 
	C10.033868,303.129639 10.033868,306.347748 9.988940,310.543945 
M390.381927,500.416199 
	C390.381927,484.312103 390.381927,468.208008 390.381927,452.023895 
	C386.309357,452.023895 382.754028,452.023895 378.665131,452.023895 
	C378.665131,464.446350 378.665131,476.559540 378.665131,489.665192 
	C370.731567,477.418213 363.468109,466.103821 356.050751,454.891235 
	C355.174774,453.567078 353.550110,452.117432 352.106506,451.916077 
	C348.899719,451.468781 345.587585,451.776611 342.382233,451.776611 
	C342.382233,471.209717 342.382233,490.097809 342.382233,508.937561 
	C346.173767,508.937561 349.626434,508.937561 353.608521,508.937561 
	C353.608521,496.565430 353.608521,484.417633 353.608521,470.744781 
	C361.776398,483.471375 369.007202,494.921478 376.504608,506.194214 
	C377.473846,507.651520 379.731171,508.716370 381.553467,509.033173 
	C384.279938,509.507172 387.149780,509.156342 390.381744,509.156342 
	C390.381744,506.333557 390.381744,503.859039 390.381927,500.416199 
M48.591084,498.478058 
	C42.397305,501.163330 36.491867,500.742096 31.420782,496.150665 
	C23.976999,489.411041 23.614151,472.652924 30.530853,465.410736 
	C36.586918,459.069733 48.526283,459.416992 52.233284,466.554504 
	C53.908485,469.779999 55.731575,470.339264 58.716938,470.154419 
	C60.852261,470.022247 63.002361,470.128754 65.518776,470.128754 
	C64.950264,461.700714 60.358440,456.507874 53.554180,453.101135 
	C37.601986,445.114197 16.176939,454.066986 13.262956,474.272247 
	C10.960312,490.238586 18.550211,504.935211 32.584152,509.366547 
	C41.903328,512.309265 50.057251,510.532532 57.514874,503.457642 
	C57.997314,505.695496 58.329563,507.236694 58.697174,508.941895 
	C61.463715,508.941895 64.042984,508.941895 66.510117,508.941895 
	C66.510117,498.243347 66.510117,487.855835 66.510117,477.317444 
	C58.503498,477.317444 50.883038,477.317444 42.968925,477.317444 
	C42.968925,480.369781 42.968925,483.269226 42.968925,486.680817 
	C47.174358,486.680817 51.093464,486.680817 55.363091,486.680817 
	C54.756577,491.698883 53.160912,495.479309 48.591084,498.478058 
M861.766418,500.154205 
	C860.673767,502.986298 859.581055,505.818359 858.419922,508.827850 
	C870.523254,509.904724 870.493652,509.893280 874.535339,499.439056 
	C874.959290,498.342316 875.973389,496.656982 876.745056,496.639648 
	C883.383057,496.490845 890.277527,495.675293 896.540894,497.255951 
	C898.842346,497.836731 899.651428,504.312103 901.160156,508.091156 
	C901.270264,508.367004 901.534912,508.581207 901.734497,508.830566 
	C905.928406,508.830566 910.122314,508.830566 914.765137,508.830566 
	C908.519287,492.415344 902.409302,476.480713 896.397461,460.509155 
	C892.957153,451.369324 893.020813,451.221771 883.302246,451.886169 
	C881.804138,451.988586 879.645264,453.473267 879.104675,454.838470 
	C873.247620,469.630707 867.653076,484.526917 861.766418,500.154205 
M777.158447,459.535156 
	C777.158447,457.082550 777.158447,454.629974 777.158447,452.096558 
	C773.124146,452.096558 769.598755,452.096558 765.575684,452.096558 
	C765.575684,458.598694 765.575684,464.750671 765.575684,471.352783 
	C755.559448,461.652344 739.207397,465.358063 735.374268,480.718079 
	C732.873474,490.739227 736.260437,502.482086 743.635254,507.742554 
	C750.077271,512.337708 757.142517,511.732361 765.977722,505.897949 
	C768.372620,512.161865 773.254272,507.801483 777.158386,509.432739 
	C777.158386,492.477722 777.158386,476.501312 777.158447,459.535156 
M664.277405,479.441498 
	C663.565918,483.902893 659.823853,483.676086 656.686951,484.259155 
	C653.297058,484.889191 649.808044,485.078064 646.478027,485.918213 
	C639.772034,487.609985 636.590393,491.883667 636.713440,498.439941 
	C636.830750,504.689819 640.162170,508.434357 646.789917,510.188416 
	C653.462646,511.954346 659.092346,509.281036 664.014282,506.506775 
	C667.903198,511.305756 672.579529,508.218628 675.850159,509.120148 
	C675.850159,498.813721 675.848083,489.032715 675.850891,479.251709 
	C675.852783,472.814728 672.906494,468.414276 666.969421,467.141205 
	C662.959900,466.281433 658.732605,465.763580 654.658447,466.010773 
	C644.377075,466.634674 638.968750,471.450317 638.370422,479.923706 
	C641.844238,479.923706 645.306458,479.923706 648.974854,479.923706 
	C650.395020,475.415009 653.385437,473.345032 658.314331,473.756805 
	C661.634460,474.034149 663.594971,475.369049 664.277405,479.441498 
M437.070221,468.255249 
	C430.382812,465.514374 423.532898,465.119446 416.586151,467.018341 
	C409.246521,469.024658 406.342407,472.430695 405.498260,479.864655 
	C406.488770,479.936279 407.475616,480.092682 408.456909,480.063568 
	C412.311127,479.949371 416.083466,481.071930 418.696259,476.005249 
	C420.614868,472.284729 425.534424,473.168457 429.091949,474.783264 
	C430.365723,475.361481 431.546570,477.766785 431.452240,479.254669 
	C431.367493,480.591125 429.682678,482.589966 428.344635,482.945587 
	C423.575562,484.213013 418.599426,484.685211 413.802246,485.866730 
	C406.975586,487.548035 403.812012,491.749298 403.899536,498.315918 
	C403.981323,504.449158 407.404968,508.377777 413.915375,510.175537 
	C420.571442,512.013489 426.194275,509.270813 431.044098,506.690491 
	C435.179718,511.140015 439.784332,508.287903 442.973846,509.072510 
	C442.973846,498.725281 442.956329,488.943604 442.981750,479.162048 
	C442.993225,474.755798 441.937714,470.930176 437.070221,468.255249 
M109.130898,509.224579 
	C112.363770,509.224579 115.596649,509.224579 117.928108,509.224579 
	C117.928108,498.687836 117.949852,488.904633 117.920601,479.121613 
	C117.900597,472.430756 115.166130,468.478394 108.968925,467.127441 
	C105.123505,466.289124 101.073524,465.811646 97.154900,465.999084 
	C86.977570,466.485901 81.919128,470.760315 80.251610,480.078857 
	C83.449280,480.078857 86.556564,480.171478 89.650681,480.010712 
	C90.381180,479.972748 91.450775,479.231628 91.712402,478.559998 
	C93.554558,473.831146 97.465454,473.040863 101.519562,474.077057 
	C103.463165,474.573822 105.624924,476.828949 106.263519,478.759003 
	C106.601761,479.781342 104.156448,482.735748 102.504837,483.211761 
	C97.939262,484.527588 93.065887,484.735352 88.433105,485.867645 
	C82.019882,487.435089 78.773544,492.059387 78.889687,498.633575 
	C78.992493,504.453033 82.439171,508.384918 88.664078,510.126770 
	C95.319489,511.989075 100.996880,509.494812 106.529739,506.357513 
	C107.156174,507.328094 107.727791,508.213745 109.130898,509.224579 
M305.160278,480.643005 
	C305.209137,472.592346 303.446106,469.070831 297.359436,467.339874 
	C289.523193,465.111328 281.603455,464.929199 274.138184,468.980408 
	C269.905365,471.277496 267.915558,474.942139 267.756104,479.939270 
	C271.623199,479.939270 275.085510,479.939270 278.492676,479.939270 
	C279.043335,478.798889 279.411621,477.686615 280.055481,476.767395 
	C282.119781,473.820496 288.525574,472.436798 291.266541,474.707794 
	C292.607574,475.818817 293.730804,478.050995 293.660675,479.721436 
	C293.609314,480.944183 291.627960,482.762115 290.201324,483.130005 
	C284.941193,484.486542 279.425446,484.929993 274.249084,486.512512 
	C268.631592,488.229950 265.887299,492.993530 266.125305,498.765961 
	C266.344696,504.086670 269.775574,508.231903 275.173706,509.950226 
	C282.253204,512.203674 288.376801,509.599792 294.279694,506.072754 
	C295.844513,509.698029 296.537201,509.845306 305.180237,508.868195 
	C305.180237,504.382935 305.180573,499.985413 305.180115,495.587921 
	C305.179626,490.927643 305.178314,486.267365 305.160278,480.643005 
M991.928589,499.413330 
	C995.624817,508.930054 1006.473511,511.374054 1013.291321,510.688660 
	C1022.001709,509.813049 1027.796387,504.617981 1029.893921,495.270203 
	C1025.722290,496.494751 1021.559570,496.686340 1018.828918,498.761902 
	C1014.820374,501.808685 1011.059814,502.909180 1006.519287,501.160645 
	C1001.967529,499.407745 1001.042236,495.581024 1001.045471,490.853729 
	C1006.298035,490.853729 1011.264160,490.853699 1016.230225,490.853699 
	C1021.124146,490.853699 1026.018066,490.853729 1031.085571,490.853729 
	C1030.938965,488.130341 1031.037354,486.309998 1030.713501,484.568207 
	C1029.285889,476.891571 1026.057007,470.275574 1018.267334,467.371552 
	C1009.729248,464.188507 1001.688599,465.711884 995.443115,472.398560 
	C988.265991,480.082489 987.738098,489.184692 991.928589,499.413330 
M154.156967,485.000397 
	C153.617310,500.212524 159.805847,508.643829 172.998840,510.670715 
	C183.197708,512.237610 193.255844,505.453003 193.883118,496.337738 
	C189.630112,496.686096 185.505859,495.421875 181.846863,499.823700 
	C179.175262,503.037689 174.348511,503.015259 170.270309,500.791199 
	C166.464783,498.715881 165.721130,495.180237 165.385208,490.447998 
	C175.841080,490.447998 185.817917,490.447998 195.883728,490.447998 
	C193.073822,472.807709 187.352859,466.025970 175.734955,465.909363 
	C164.538010,465.796967 156.452423,472.762909 154.156967,485.000397 
M811.849854,501.816895 
	C803.304626,502.445038 799.662781,499.361725 799.408630,491.280487 
	C799.715881,491.161621 800.022644,490.940491 800.330505,490.938934 
	C807.993103,490.900085 815.655762,490.892670 823.318359,490.862061 
	C829.593933,490.836975 829.593811,490.826874 829.056763,484.593353 
	C827.966553,471.938873 816.494324,463.534363 804.416199,466.541748 
	C793.200867,469.334320 786.934082,478.363312 787.879456,490.367462 
	C788.805969,502.131683 796.229126,509.772186 807.743042,510.770721 
	C816.056091,511.491638 827.299988,506.316254 827.634094,496.482513 
	C823.302856,496.519165 818.635010,495.017700 815.677063,500.050995 
	C815.208252,500.848785 813.632996,500.996368 811.849854,501.816895 
M536.416931,505.099304 
	C548.017761,515.289917 570.745422,512.370911 573.429382,491.659668 
	C574.703613,481.826935 569.390015,468.423706 556.616638,466.287415 
	C544.950989,464.336365 534.385681,469.815277 531.251038,480.777893 
	C528.751343,489.519958 530.652405,497.383240 536.416931,505.099304 
M624.737854,484.658447 
	C624.741394,483.161835 624.851013,481.656647 624.731018,480.170013 
	C623.993835,471.041656 619.605164,466.348938 611.453857,465.918701 
	C605.699097,465.614960 600.777832,467.500000 596.424255,472.418121 
	C596.205750,470.306244 596.062866,468.925079 595.908447,467.432495 
	C592.485229,467.432495 589.240295,467.432495 585.849487,467.432495 
	C585.849487,481.412109 585.849487,495.133789 585.849487,508.812012 
	C589.656433,508.812012 593.210022,508.812012 596.955994,508.812012 
	C596.955994,500.651672 596.650269,492.835846 597.107971,485.064941 
	C597.288269,482.004486 598.391235,478.126953 600.517395,476.315704 
	C602.370239,474.737213 606.731995,474.510162 609.092285,475.607147 
	C611.108398,476.544128 612.850098,480.156677 612.985168,482.678253 
	C613.452515,491.403473 613.165222,500.169067 613.165222,508.847260 
	C617.352722,508.847260 620.922302,508.847260 624.271851,508.847260 
	C624.554626,508.351074 624.704407,508.210785 624.704773,508.070129 
	C624.723816,500.587036 624.730286,493.103882 624.737854,484.658447 
M495.041382,495.319397 
	C494.478699,494.762665 493.941101,493.757843 493.349152,493.724762 
	C490.391754,493.559509 487.420135,493.649200 484.465363,493.649200 
	C484.144562,494.500122 483.920868,495.112732 483.683472,495.720001 
	C482.072998,499.839355 479.249908,502.306213 474.634583,502.045105 
	C469.700836,501.765991 466.936584,498.521301 466.481476,494.146881 
	C466.013275,489.646484 466.309143,484.908447 467.222626,480.470367 
	C468.014069,476.625305 471.265656,474.519531 475.345032,474.387787 
	C479.017456,474.269135 481.553040,475.979553 483.219574,479.325500 
	C483.726318,480.342865 485.129883,481.413239 486.227661,481.538269 
	C488.989410,481.852905 491.811005,481.642365 494.610382,481.642365 
	C494.528595,476.211548 492.714478,472.658112 488.835205,469.986725 
	C479.924103,463.850250 467.577118,464.619904 460.445312,471.756317 
	C453.537140,478.669067 452.181152,493.786102 457.731934,501.739655 
	C462.443573,508.490753 469.175964,511.278870 477.068024,510.659668 
	C486.128754,509.948761 492.575348,505.405151 495.041382,495.319397 
M973.889282,490.446838 
	C973.889282,485.374451 973.889282,480.302063 973.889282,474.924835 
	C977.127808,474.924835 979.552673,474.924835 981.903748,474.924835 
	C981.903748,472.191864 981.903748,469.811432 981.903748,467.071594 
	C979.094421,467.071594 976.671875,467.071594 973.867432,467.071594 
	C973.867432,462.794739 973.867432,458.875671 973.867432,454.826050 
	C969.905334,454.826050 966.341919,454.826050 962.301514,454.826050 
	C962.301514,459.035248 962.301514,462.936249 962.301514,466.912964 
	C959.751099,467.143982 957.658447,467.333527 955.408325,467.537323 
	C955.408325,470.087158 955.408325,472.335693 955.408325,474.869904 
	C957.689636,475.036530 959.768433,475.188385 962.307861,475.373871 
	C962.307861,483.707153 962.321350,491.799011 962.302917,499.890778 
	C962.291748,504.814026 964.394043,508.294403 969.395020,509.117645 
	C973.504456,509.794159 977.718567,509.834534 982.060791,510.170319 
	C982.060791,506.724274 982.060791,504.297241 982.060791,501.727203 
	C981.237488,501.578400 980.596191,501.316528 979.985657,501.375183 
	C975.149414,501.839996 973.244385,499.628571 973.865295,494.913055 
	C974.015930,493.769196 973.888428,492.588715 973.889282,490.446838 
M131.252014,470.501099 
	C131.252014,483.273743 131.252014,496.046356 131.252014,508.977844 
	C135.362244,508.977844 138.958038,508.977844 142.648788,508.977844 
	C142.648788,489.845428 142.648788,470.965668 142.648788,451.929626 
	C138.813461,451.929626 135.208771,451.929626 131.252380,451.929626 
	C131.252380,457.938354 131.252380,463.720154 131.252014,470.501099 
M700.662964,471.500763 
	C700.662964,465.064758 700.662964,458.628723 700.662964,451.961761 
	C696.666931,451.961761 693.065674,451.961761 689.274048,451.961761 
	C689.274048,471.003906 689.274048,489.869354 689.274048,508.972198 
	C693.026245,508.972198 696.619995,508.972198 700.662903,508.972198 
	C700.662903,496.697845 700.662903,484.599152 700.662964,471.500763 
M217.154648,471.666809 
	C217.075745,470.255371 216.996841,468.843933 216.927536,467.604248 
	C213.257507,467.604248 210.043991,467.604248 206.808426,467.604248 
	C206.808426,481.598358 206.808426,495.187866 206.808426,508.881348 
	C210.595795,508.881348 214.154175,508.881348 217.974731,508.881348 
	C217.974731,502.126892 217.914551,495.669861 217.989578,489.214417 
	C218.089142,480.647522 222.016602,476.732635 230.362137,476.666290 
	C231.445206,476.657684 232.526657,476.446350 234.682480,476.212433 
	C233.576004,472.506714 232.611755,469.277405 231.647522,466.048065 
	C227.656494,467.703644 223.641037,469.304626 219.699127,471.069855 
	C219.058609,471.356720 218.778168,472.401733 218.234924,473.010315 
	C218.167801,473.085480 217.503174,472.627289 217.154648,471.666809 
M936.658020,470.045197 
	C935.687134,471.256744 934.716309,472.468262 933.513000,473.969849 
	C933.291931,471.388123 933.114380,469.314362 932.954712,467.449890 
	C929.360535,467.449890 926.258179,467.449890 923.002319,467.449890 
	C923.002319,481.431366 923.002319,495.118774 923.002319,508.804596 
	C926.829163,508.804596 930.355286,508.804596 934.051086,508.804596 
	C934.051086,503.449890 934.051086,498.477814 934.051147,493.505737 
	C934.051331,479.547302 935.992981,477.381714 950.227112,476.335846 
	C949.705322,473.042419 949.189575,469.786896 948.673889,466.531403 
	C945.136169,467.375183 941.596741,468.211609 938.063904,469.075531 
	C937.756042,469.150787 937.492310,469.406403 936.658020,470.045197 
M254.908371,487.500092 
	C254.908371,480.901672 254.908371,474.303253 254.908371,467.531555 
	C250.935104,467.531555 247.387024,467.531555 243.792694,467.531555 
	C243.792694,481.536224 243.792694,495.213074 243.792694,508.798157 
	C247.702118,508.798157 251.242386,508.798157 254.908356,508.798157 
	C254.908356,501.767029 254.908356,495.133484 254.908371,487.500092 
M513.537598,467.211365 
	C511.625732,467.211365 509.713837,467.211365 507.703033,467.211365 
	C507.703033,481.554779 507.703033,495.121735 507.703033,508.929077 
	C511.479187,508.929077 515.029297,508.929077 518.645752,508.929077 
	C518.645752,494.977081 518.645752,481.294891 518.645752,467.214508 
	C517.039673,467.214508 515.741150,467.214508 513.537598,467.211365 
M25.816994,565.450867 
	C26.492626,564.728333 27.128721,563.431580 27.850679,563.381897 
	C31.122807,563.156616 34.419170,563.283325 37.723804,563.283325 
	C39.335258,568.889832 36.634892,574.757385 39.393070,579.740173 
	C39.849140,579.693054 40.305206,579.645935 40.761276,579.598877 
	C40.761276,568.705933 40.761276,557.812988 40.761276,546.920044 
	C36.470398,550.908813 39.491280,556.251343 37.735252,560.681152 
	C33.761913,560.681152 29.871901,560.681152 26.007982,560.681152 
	C25.257435,547.800232 25.257435,547.800232 23.291019,547.312073 
	C23.291019,558.061401 23.291019,568.831543 23.291019,579.601746 
	C23.765503,579.637878 24.239985,579.674011 24.714468,579.710144 
	C27.027664,575.584961 25.189476,570.834961 25.816994,565.450867 
M307.227112,551.746582 
	C307.220337,559.725037 307.161865,567.704163 307.255615,575.681458 
	C307.272034,577.077271 307.928192,578.465576 308.288879,579.857361 
	C308.823853,579.762939 309.358795,579.668518 309.893738,579.574097 
	C309.893738,570.913757 309.893738,562.253418 309.893738,553.593079 
	C314.181519,561.057434 317.467438,568.749146 321.028107,576.311523 
	C321.730682,577.803650 323.491669,578.797485 324.764557,580.021057 
	C325.924438,569.315186 325.969910,559.685181 325.862000,550.056824 
	C325.849670,548.957947 324.977936,547.868652 324.504669,546.774902 
	C323.941772,546.962952 323.378876,547.150940 322.815979,547.338989 
	C322.815979,555.655762 322.815979,563.972534 322.815979,572.289307 
	C318.632477,564.941589 315.461334,557.364502 312.058411,549.893066 
	C311.494873,548.655762 309.918152,547.879944 308.809662,546.890808 
	C308.278778,548.200500 307.747864,549.510254 307.227112,551.746582 
M592.932373,547.371887 
	C592.850403,555.361755 592.637573,563.353149 592.727783,571.341064 
	C592.800537,577.776001 595.036316,579.962830 600.953857,580.069153 
	C607.385681,580.184692 610.287903,577.798218 610.497375,571.383850 
	C610.736389,564.062988 610.516235,556.724426 610.354492,549.396729 
	C610.335632,548.543274 609.418884,547.709656 608.918396,546.866882 
	C608.471069,547.765564 607.654846,548.656128 607.634888,549.564209 
	C607.476624,556.724609 607.467529,563.888367 607.418457,571.051086 
	C607.383545,576.149414 605.717834,577.964111 601.272156,578.019409 
	C596.327087,578.080933 595.658386,574.854614 595.664551,571.023438 
	C595.675415,564.192444 595.786865,557.358826 595.609924,550.532776 
	C595.578308,549.315613 594.355408,548.129456 592.932373,547.371887 
M460.554016,579.358643 
	C462.796082,577.847473 466.179077,576.826416 467.076385,574.737549 
	C470.387054,567.030701 470.740112,558.674744 466.900238,551.209717 
	C463.649323,544.889526 456.723114,547.192322 451.094482,546.969482 
	C450.832214,546.959106 450.557556,547.261902 450.170380,547.487915 
	C450.170380,558.018738 450.170380,568.601990 450.170380,579.623962 
	C453.508453,579.623962 456.631409,579.623962 460.554016,579.358643 
M1016.768127,548.188049 
	C1012.071716,555.698059 1013.428650,560.354919 1021.401001,564.030396 
	C1022.754883,564.654541 1024.632935,564.846558 1025.403076,565.882141 
	C1026.917603,567.918457 1029.014282,570.621582 1028.648804,572.648254 
	C1028.279907,574.693298 1025.500488,577.000122 1023.268066,577.841003 
	C1020.296570,578.960327 1017.892578,577.102234 1016.870056,573.939209 
	C1016.450012,572.639893 1016.003052,571.349304 1015.568359,570.054749 
	C1014.117126,570.870117 1013.467346,571.806580 1013.602478,572.611084 
	C1014.294983,576.733276 1016.314697,579.646118 1020.926025,580.025024 
	C1027.165161,580.537598 1030.117920,579.073669 1031.557495,574.325745 
	C1032.910645,569.863037 1031.690796,566.040283 1027.733154,563.546875 
	C1025.245728,561.979736 1021.909363,561.519531 1019.841675,559.604248 
	C1018.242981,558.123535 1017.041687,554.942261 1017.481934,552.911011 
	C1017.874634,551.099243 1020.690247,548.749207 1022.564026,548.629517 
	C1024.335571,548.516296 1026.362305,550.892334 1028.095825,552.383850 
	C1028.847168,553.030273 1029.144653,554.204224 1029.648315,555.138550 
	C1030.290771,554.832764 1030.933228,554.526917 1031.575562,554.221130 
	C1030.556274,552.138367 1030.030151,549.481628 1028.414429,548.093018 
	C1025.104736,545.248840 1021.162170,545.258911 1016.768127,548.188049 
M891.528259,579.774658 
	C891.830444,579.673096 892.402832,579.503357 892.396851,579.479553 
	C889.757935,569.013489 887.101135,558.551758 884.339722,548.117615 
	C884.198975,547.585938 883.032471,546.858459 882.554626,546.989868 
	C881.789612,547.200134 880.796692,547.941772 880.599670,548.652710 
	C877.768982,558.867065 875.055603,569.113892 872.082092,580.218811 
	C877.921997,578.138245 875.606873,572.852661 877.954834,570.098450 
	C881.234009,570.098450 884.489319,570.098450 887.229919,570.098450 
	C888.523987,573.568909 889.654053,576.599609 891.528259,579.774658 
M165.276596,561.670105 
	C165.837982,566.048401 166.008469,570.525085 167.078995,574.775146 
	C168.008774,578.466553 170.884750,580.287292 174.987091,580.119629 
	C178.843948,579.962158 181.247971,578.082642 182.375839,574.627502 
	C184.853195,567.038452 184.940994,559.233521 182.133499,551.872253 
	C181.185623,549.386963 177.696304,546.933777 174.948135,546.305847 
	C171.394058,545.493835 168.192993,547.894897 167.035110,551.623413 
	C166.119186,554.572876 165.823883,557.714966 165.276596,561.670105 
M255.250580,458.822937 
	C257.623322,456.240753 259.996063,453.658539 262.130615,451.335571 
	C252.745255,448.426575 247.199249,453.046722 244.066772,461.946625 
	C248.086182,463.188965 251.626282,462.247314 255.250580,458.822937 
M518.957825,458.361603 
	C518.957825,456.260101 518.957825,454.158569 518.957825,451.925842 
	C515.000793,451.925842 511.440460,451.925842 507.803741,451.925842 
	C507.803741,455.029022 507.803741,457.882019 507.803741,461.837402 
	C511.902832,460.894379 515.426941,460.083618 518.957825,458.361603 
z"/>
<path fill="#71C4B7" opacity="1.000000" stroke="none" 
	d="
M406.002747,234.013733 
	C354.522247,234.052261 303.041748,234.090851 251.561234,234.129166 
	C249.599030,234.130630 247.636810,234.129364 245.310944,234.129364 
	C245.310944,247.175995 245.310944,259.712677 245.310944,272.904114 
	C286.277893,272.904114 326.994843,272.904114 369.095490,272.904114 
	C366.577667,282.929749 364.707489,292.159210 361.923737,301.104401 
	C355.330017,322.292664 343.589783,340.542023 328.010132,356.149841 
	C313.539215,370.646881 296.634644,381.719910 277.332611,388.897491 
	C249.444992,399.267609 220.784866,401.078705 191.424469,397.394257 
	C172.539566,395.024414 154.571747,389.661255 137.633423,381.492737 
	C110.141357,368.234680 87.077957,349.390930 69.735573,323.901276 
	C56.406544,304.310394 46.616070,283.189056 41.816990,259.966583 
	C37.486118,239.009720 36.793373,217.979523 40.395660,196.681778 
	C44.958130,169.707214 55.628624,145.438095 71.507790,123.528374 
	C84.190353,106.029221 99.803856,91.290581 118.774940,80.576363 
	C128.441589,75.116974 138.471588,70.300995 149.037323,65.050217 
	C154.474457,63.225998 159.211609,61.545750 163.948746,59.865501 
	C164.770584,59.641792 165.592407,59.418083 167.070374,59.063946 
	C169.546188,58.321156 171.365891,57.708790 173.185577,57.096420 
	C187.859467,55.738968 202.517792,53.509483 217.211212,53.247402 
	C235.100388,52.928318 252.502228,57.156425 269.404694,62.913040 
	C298.085724,72.681190 323.626282,87.901222 346.225281,108.065582 
	C347.953339,109.607460 349.560089,111.285316 351.706604,113.281982 
	C354.510529,115.866058 356.831024,118.068108 359.539795,120.638573 
	C361.073730,118.316551 362.135315,116.709572 363.196930,115.102585 
	C365.119415,113.712112 367.041901,112.321640 369.345337,110.486664 
	C370.241364,109.405754 370.756409,108.769356 371.271454,108.132950 
	C371.811218,107.678268 372.350983,107.223595 373.337891,106.421005 
	C374.948120,104.760620 376.111176,103.448135 377.274231,102.135643 
	C378.068634,101.556152 378.863068,100.976662 380.076477,100.024506 
	C381.076660,98.808014 381.657837,97.964195 382.239014,97.120377 
	C383.173981,96.472603 384.116302,95.835167 385.042175,95.174683 
	C386.515228,94.123840 387.977295,93.057594 389.518799,91.943810 
	C364.148865,67.111862 337.269684,46.771111 305.147339,32.771919 
	C299.417114,30.560349 294.248352,28.695223 289.079590,26.830097 
	C288.567841,26.584358 288.056061,26.338621 287.020874,25.814939 
	C283.191040,24.505459 279.940704,23.210070 276.567413,22.493151 
	C267.403473,20.545536 258.187500,18.842934 248.992126,17.043207 
	C244.323334,16.212503 239.654541,15.381800 234.985733,14.551097 
	C234.994141,14.365316 235.002548,14.179537 235.010956,13.993757 
	C293.023407,13.993757 351.035828,13.993757 409.517090,14.503300 
	C409.990234,85.819763 409.965912,156.626724 410.086273,227.433441 
	C410.092102,230.853561 409.265167,232.992676 406.002747,234.013733 
z"/>
<path fill="#262425" opacity="1.000000" stroke="none" 
	d="
M412.992767,14.890799 
	C422.513428,13.697949 425.890747,21.727951 430.668671,27.139000 
	C451.288239,50.491043 471.644257,74.076347 492.038666,97.626549 
	C514.712646,123.809044 537.270691,150.092087 559.978027,176.245514 
	C582.710205,202.427490 605.599792,228.472626 628.353943,254.635513 
	C646.844543,275.896118 665.238708,297.240601 683.667725,318.554718 
	C684.726074,319.778748 685.713074,321.064453 687.728394,321.697754 
	C687.728394,219.820908 687.728394,117.944061 687.728394,15.342212 
	C692.035278,15.342212 695.965149,15.342413 699.895081,15.342161 
	C705.061157,15.341831 710.356384,16.072460 715.366272,15.187531 
	C725.620911,13.376192 731.632996,18.502102 737.715820,25.763817 
	C754.539490,45.848324 771.961182,65.431602 789.129700,85.227570 
	C805.178772,103.732788 821.191406,122.269592 837.247375,140.768799 
	C853.985535,160.053955 870.786743,179.284409 887.504272,198.587402 
	C904.122437,217.775681 920.626709,237.062744 937.264648,256.233795 
	C949.093201,269.863220 960.874146,283.541718 973.010498,296.894592 
	C990.767639,316.431580 1008.844788,335.677460 1026.697510,355.128204 
	C1027.691895,356.211578 1028.369019,358.027832 1028.377319,359.507599 
	C1028.487427,378.954163 1028.450684,398.401550 1028.450684,419.051636 
	C1026.525269,417.687012 1025.553467,417.243683 1024.915161,416.510254 
	C1004.659851,393.238953 984.461731,369.917877 964.200378,346.651886 
	C950.579041,331.010529 936.862122,315.452454 923.216003,299.832581 
	C919.068970,295.085663 914.984070,290.283295 910.930969,285.455750 
	C908.498291,282.558289 905.903320,280.961273 901.690002,280.980103 
	C857.029297,281.179718 812.367371,281.105042 767.705750,281.105896 
	C765.903809,281.105927 764.101807,281.105896 761.705933,281.105896 
	C761.705933,327.181091 761.705933,372.886566 761.705933,419.007812 
	C747.813538,419.007812 734.484009,419.505585 721.242249,418.647583 
	C718.048767,418.440643 714.802307,414.048981 712.167786,411.063293 
	C699.333923,396.518951 686.700989,381.797455 673.994263,367.140900 
	C653.928528,343.996063 633.892456,320.825409 613.783447,297.718231 
	C598.743347,280.435791 583.570251,263.269104 568.525208,245.990982 
	C551.412720,226.338577 534.423279,206.578949 517.295044,186.940445 
	C498.666199,165.581436 479.935364,144.311401 461.259644,122.993217 
	C458.927917,120.331573 456.661163,117.613022 453.686035,114.125877 
	C453.686035,216.234222 453.686035,317.277710 453.686035,418.743317 
	C439.568024,418.743317 425.826324,418.743317 411.937683,418.432648 
	C411.790710,418.121979 412.082611,418.005890 412.363434,417.698639 
	C412.763641,415.575531 412.986481,413.759735 412.987305,411.943848 
	C413.007050,367.113586 413.002838,322.283325 413.004089,277.453064 
	C413.004303,269.120331 413.110138,260.785858 412.967957,252.455597 
	C412.902710,248.633804 412.355164,244.820236 412.026337,241.002945 
	C411.944122,238.971024 411.861908,236.939117 412.163574,234.190063 
	C412.701782,231.502914 412.990479,229.532974 412.991058,227.562927 
	C413.010712,159.332199 413.007568,91.101479 412.981323,22.870762 
	C412.980408,20.487974 412.710602,18.105288 412.713562,15.535549 
	C412.861023,15.348543 412.992767,14.890799 412.992767,14.890799 
M864.265808,232.212250 
	C860.552368,227.987808 856.812622,223.786224 853.130249,219.534836 
	C839.704224,204.034409 826.311462,188.505173 812.879211,173.010132 
	C800.404846,158.619843 787.912598,144.244904 775.393311,129.893677 
	C771.111267,124.985123 766.723206,120.169029 762.020752,114.904472 
	C762.020752,158.932434 762.020752,202.145844 762.020752,245.459717 
	C799.952209,245.459717 837.498413,245.459717 875.877563,245.459717 
	C871.843384,240.829819 868.307373,236.771637 864.265808,232.212250 
z"/>
<path fill="#73C3B6" opacity="1.000000" stroke="none" 
	d="
M129.000000,13.987247 
	C146.991425,13.987236 164.482849,13.987236 181.974274,13.987236 
	C99.268822,27.283964 42.098511,72.450638 10.431343,151.669586 
	C10.431343,105.168388 10.431343,60.049065 10.431343,13.987258 
	C49.689373,13.987258 89.094688,13.987258 129.000000,13.987247 
z"/>
<path fill="#2A2829" opacity="1.000000" stroke="none" 
	d="
M434.000000,531.983154 
	C292.854004,531.983032 152.207977,531.983032 11.151876,531.983032 
	C10.989044,530.467529 10.839545,529.076111 10.680958,527.600098 
	C349.944031,527.600098 688.937927,527.600098 1028.096924,527.600098 
	C1028.096924,529.622559 1028.096924,530.998779 1028.096924,531.983215 
	C830.008545,531.983215 632.254272,531.983215 434.000000,531.983154 
z"/>
<path fill="#73C2B5" opacity="1.000000" stroke="none" 
	d="
M10.011404,310.054901 
	C10.033868,306.347748 10.033868,303.129639 10.033868,299.911560 
	C32.161827,352.566345 67.436646,392.518677 119.887611,417.914459 
	C117.586792,418.017822 116.211731,418.132751 114.836601,418.133606 
	C81.672585,418.153748 48.508102,418.080872 15.345063,418.266663 
	C10.830782,418.291931 9.854542,416.810181 9.876744,412.535217 
	C10.053316,378.538849 9.983295,344.541199 10.011404,310.054901 
z"/>
<path fill="#72C3B6" opacity="1.000000" stroke="none" 
	d="
M409.972992,417.902771 
	C384.650024,417.972321 359.327057,418.046997 334.004089,418.108368 
	C326.041809,418.127655 318.079468,418.111389 310.440308,418.111389 
	C320.743195,411.178589 331.468994,404.625427 341.458160,397.095093 
	C359.750000,383.305756 373.795776,365.697632 384.987579,345.800934 
	C397.274048,323.958221 404.699280,300.477661 408.220795,275.713898 
	C408.312958,275.065887 408.629242,274.449707 409.230713,273.724670 
	C409.745361,274.777069 409.979370,275.923462 409.979614,277.069946 
	C409.990540,324.014221 409.980438,370.958496 409.972992,417.902771 
z"/>
<path fill="#2A2829" opacity="1.000000" stroke="none" 
	d="
M390.381836,500.900330 
	C390.381744,503.859039 390.381744,506.333557 390.381744,509.156342 
	C387.149780,509.156342 384.279938,509.507172 381.553467,509.033173 
	C379.731171,508.716370 377.473846,507.651520 376.504608,506.194214 
	C369.007202,494.921478 361.776398,483.471375 353.608521,470.744781 
	C353.608521,484.417633 353.608521,496.565430 353.608521,508.937561 
	C349.626434,508.937561 346.173767,508.937561 342.382233,508.937561 
	C342.382233,490.097809 342.382233,471.209717 342.382233,451.776611 
	C345.587585,451.776611 348.899719,451.468781 352.106506,451.916077 
	C353.550110,452.117432 355.174774,453.567078 356.050751,454.891235 
	C363.468109,466.103821 370.731567,477.418213 378.665131,489.665192 
	C378.665131,476.559540 378.665131,464.446350 378.665131,452.023895 
	C382.754028,452.023895 386.309357,452.023895 390.381927,452.023895 
	C390.381927,468.208008 390.381927,484.312103 390.381836,500.900330 
z"/>
<path fill="#2C2A2B" opacity="1.000000" stroke="none" 
	d="
M48.896572,498.234192 
	C53.160912,495.479309 54.756577,491.698883 55.363091,486.680817 
	C51.093464,486.680817 47.174358,486.680817 42.968925,486.680817 
	C42.968925,483.269226 42.968925,480.369781 42.968925,477.317444 
	C50.883038,477.317444 58.503498,477.317444 66.510117,477.317444 
	C66.510117,487.855835 66.510117,498.243347 66.510117,508.941895 
	C64.042984,508.941895 61.463715,508.941895 58.697174,508.941895 
	C58.329563,507.236694 57.997314,505.695496 57.514874,503.457642 
	C50.057251,510.532532 41.903328,512.309265 32.584152,509.366547 
	C18.550211,504.935211 10.960312,490.238586 13.262956,474.272247 
	C16.176939,454.066986 37.601986,445.114197 53.554180,453.101135 
	C60.358440,456.507874 64.950264,461.700714 65.518776,470.128754 
	C63.002361,470.128754 60.852261,470.022247 58.716938,470.154419 
	C55.731575,470.339264 53.908485,469.779999 52.233284,466.554504 
	C48.526283,459.416992 36.586918,459.069733 30.530853,465.410736 
	C23.614151,472.652924 23.976999,489.411041 31.420782,496.150665 
	C36.491867,500.742096 42.397305,501.163330 48.896572,498.234192 
z"/>
<path fill="#292728" opacity="1.000000" stroke="none" 
	d="
M861.876648,499.774475 
	C867.653076,484.526917 873.247620,469.630707 879.104675,454.838470 
	C879.645264,453.473267 881.804138,451.988586 883.302246,451.886169 
	C893.020813,451.221771 892.957153,451.369324 896.397461,460.509155 
	C902.409302,476.480713 908.519287,492.415344 914.765137,508.830566 
	C910.122314,508.830566 905.928406,508.830566 901.731079,508.827332 
	C901.534912,508.581207 901.270264,508.367004 901.160156,508.091156 
	C899.651428,504.312103 898.842346,497.836731 896.540894,497.255951 
	C890.277527,495.675293 883.383057,496.490845 876.745056,496.639648 
	C875.973389,496.656982 874.959290,498.342316 874.535339,499.439056 
	C870.493652,509.893280 870.523254,509.904724 858.419922,508.827850 
	C859.581055,505.818359 860.673767,502.986298 861.876648,499.774475 
M885.050842,469.693024 
	C883.111389,475.359039 881.171936,481.025055 879.160461,486.901672 
	C884.326416,486.901672 888.892090,486.901672 893.844055,486.901672 
	C891.434875,480.055420 889.147522,473.555267 886.659912,466.486053 
	C885.924805,467.815918 885.607422,468.389954 885.050842,469.693024 
z"/>
<path fill="#292728" opacity="1.000000" stroke="none" 
	d="
M777.158447,460.030029 
	C777.158386,476.501312 777.158386,492.477722 777.158386,509.432739 
	C773.254272,507.801483 768.372620,512.161865 765.977722,505.897949 
	C757.142517,511.732361 750.077271,512.337708 743.635254,507.742554 
	C736.260437,502.482086 732.873474,490.739227 735.374268,480.718079 
	C739.207397,465.358063 755.559448,461.652344 765.575684,471.352783 
	C765.575684,464.750671 765.575684,458.598694 765.575684,452.096558 
	C769.598755,452.096558 773.124146,452.096558 777.158447,452.096558 
	C777.158447,454.629974 777.158447,457.082550 777.158447,460.030029 
M764.147705,497.483185 
	C767.016357,491.873260 767.075317,486.101898 764.842163,480.332275 
	C763.229492,476.165527 759.866760,474.173492 755.499207,474.389740 
	C751.572693,474.584137 748.005798,476.596008 747.407593,480.457520 
	C746.648193,485.359039 746.182190,490.753693 747.461731,495.422729 
	C749.600037,503.226013 758.277466,504.349152 764.147705,497.483185 
z"/>
<path fill="#2C2A2B" opacity="1.000000" stroke="none" 
	d="
M664.272766,479.020935 
	C663.594971,475.369049 661.634460,474.034149 658.314331,473.756805 
	C653.385437,473.345032 650.395020,475.415009 648.974854,479.923706 
	C645.306458,479.923706 641.844238,479.923706 638.370422,479.923706 
	C638.968750,471.450317 644.377075,466.634674 654.658447,466.010773 
	C658.732605,465.763580 662.959900,466.281433 666.969421,467.141205 
	C672.906494,468.414276 675.852783,472.814728 675.850891,479.251709 
	C675.848083,489.032715 675.850159,498.813721 675.850159,509.120148 
	C672.579529,508.218628 667.903198,511.305756 664.014282,506.506775 
	C659.092346,509.281036 653.462646,511.954346 646.789917,510.188416 
	C640.162170,508.434357 636.830750,504.689819 636.713440,498.439941 
	C636.590393,491.883667 639.772034,487.609985 646.478027,485.918213 
	C649.808044,485.078064 653.297058,484.889191 656.686951,484.259155 
	C659.823853,483.676086 663.565918,483.902893 664.272766,479.020935 
M648.018433,496.691559 
	C648.530029,501.528137 651.299072,503.554474 656.481262,502.884583 
	C662.983398,502.044098 665.184692,498.007385 663.728577,489.748383 
	C661.131042,490.142761 658.349426,490.080811 655.990051,491.048370 
	C653.168457,492.205505 650.707825,494.242767 648.018433,496.691559 
z"/>
<path fill="#2B292A" opacity="1.000000" stroke="none" 
	d="
M437.384705,468.471527 
	C441.937714,470.930176 442.993225,474.755798 442.981750,479.162048 
	C442.956329,488.943604 442.973846,498.725281 442.973846,509.072510 
	C439.784332,508.287903 435.179718,511.140015 431.044098,506.690491 
	C426.194275,509.270813 420.571442,512.013489 413.915375,510.175537 
	C407.404968,508.377777 403.981323,504.449158 403.899536,498.315918 
	C403.812012,491.749298 406.975586,487.548035 413.802246,485.866730 
	C418.599426,484.685211 423.575562,484.213013 428.344635,482.945587 
	C429.682678,482.589966 431.367493,480.591125 431.452240,479.254669 
	C431.546570,477.766785 430.365723,475.361481 429.091949,474.783264 
	C425.534424,473.168457 420.614868,472.284729 418.696259,476.005249 
	C416.083466,481.071930 412.311127,479.949371 408.456909,480.063568 
	C407.475616,480.092682 406.488770,479.936279 405.498260,479.864655 
	C406.342407,472.430695 409.246521,469.024658 416.586151,467.018341 
	C423.532898,465.119446 430.382812,465.514374 437.384705,468.471527 
M415.236908,495.926758 
	C415.375702,501.148804 417.337860,503.060272 422.399902,502.904572 
	C429.703979,502.679993 432.071442,499.137909 431.509369,489.445709 
	C428.647491,489.938751 425.640503,490.067322 422.933014,491.034424 
	C420.304321,491.973419 417.982971,493.772858 415.236908,495.926758 
z"/>
<path fill="#2B292A" opacity="1.000000" stroke="none" 
	d="
M108.715157,509.161987 
	C107.727791,508.213745 107.156174,507.328094 106.529739,506.357513 
	C100.996880,509.494812 95.319489,511.989075 88.664078,510.126770 
	C82.439171,508.384918 78.992493,504.453033 78.889687,498.633575 
	C78.773544,492.059387 82.019882,487.435089 88.433105,485.867645 
	C93.065887,484.735352 97.939262,484.527588 102.504837,483.211761 
	C104.156448,482.735748 106.601761,479.781342 106.263519,478.759003 
	C105.624924,476.828949 103.463165,474.573822 101.519562,474.077057 
	C97.465454,473.040863 93.554558,473.831146 91.712402,478.559998 
	C91.450775,479.231628 90.381180,479.972748 89.650681,480.010712 
	C86.556564,480.171478 83.449280,480.078857 80.251610,480.078857 
	C81.919128,470.760315 86.977570,466.485901 97.154900,465.999084 
	C101.073524,465.811646 105.123505,466.289124 108.968925,467.127441 
	C115.166130,468.478394 117.900597,472.430756 117.920601,479.121613 
	C117.949852,488.904633 117.928108,498.687836 117.928108,509.224579 
	C115.596649,509.224579 112.363770,509.224579 108.715157,509.161987 
M91.531868,500.963867 
	C95.472275,504.364349 99.756294,503.440796 103.385399,500.979645 
	C107.459084,498.217041 106.624557,493.547882 106.521210,489.325958 
	C102.464684,490.176819 98.584900,490.745087 94.857147,491.833862 
	C90.057152,493.235779 89.337128,495.137878 91.531868,500.963867 
z"/>
<path fill="#2B292A" opacity="1.000000" stroke="none" 
	d="
M305.168823,481.125061 
	C305.178314,486.267365 305.179626,490.927643 305.180115,495.587921 
	C305.180573,499.985413 305.180237,504.382935 305.180237,508.868195 
	C296.537201,509.845306 295.844513,509.698029 294.279694,506.072754 
	C288.376801,509.599792 282.253204,512.203674 275.173706,509.950226 
	C269.775574,508.231903 266.344696,504.086670 266.125305,498.765961 
	C265.887299,492.993530 268.631592,488.229950 274.249084,486.512512 
	C279.425446,484.929993 284.941193,484.486542 290.201324,483.130005 
	C291.627960,482.762115 293.609314,480.944183 293.660675,479.721436 
	C293.730804,478.050995 292.607574,475.818817 291.266541,474.707794 
	C288.525574,472.436798 282.119781,473.820496 280.055481,476.767395 
	C279.411621,477.686615 279.043335,478.798889 278.492676,479.939270 
	C275.085510,479.939270 271.623199,479.939270 267.756104,479.939270 
	C267.915558,474.942139 269.905365,471.277496 274.138184,468.980408 
	C281.603455,464.929199 289.523193,465.111328 297.359436,467.339874 
	C303.446106,469.070831 305.209137,472.592346 305.168823,481.125061 
M277.696350,499.152252 
	C280.404510,504.136078 284.743927,503.631287 288.911011,501.990997 
	C294.890350,499.637390 293.828796,494.192352 293.903442,489.474304 
	C290.246002,490.143311 286.693909,490.674805 283.200287,491.465027 
	C279.648376,492.268372 277.020203,494.026611 277.696350,499.152252 
z"/>
<path fill="#2D2B2C" opacity="1.000000" stroke="none" 
	d="
M991.770203,499.060608 
	C987.738098,489.184692 988.265991,480.082489 995.443115,472.398560 
	C1001.688599,465.711884 1009.729248,464.188507 1018.267334,467.371552 
	C1026.057007,470.275574 1029.285889,476.891571 1030.713501,484.568207 
	C1031.037354,486.309998 1030.938965,488.130341 1031.085571,490.853729 
	C1026.018066,490.853729 1021.124146,490.853699 1016.230225,490.853699 
	C1011.264160,490.853699 1006.298035,490.853729 1001.045471,490.853729 
	C1001.042236,495.581024 1001.967529,499.407745 1006.519287,501.160645 
	C1011.059814,502.909180 1014.820374,501.808685 1018.828918,498.761902 
	C1021.559570,496.686340 1025.722290,496.494751 1029.893921,495.270203 
	C1027.796387,504.617981 1022.001709,509.813049 1013.291321,510.688660 
	C1006.473511,511.374054 995.624817,508.930054 991.770203,499.060608 
M1003.926758,483.794220 
	C1008.942688,483.794220 1013.958557,483.794220 1019.124084,483.794220 
	C1017.833313,477.074768 1015.356079,474.422485 1010.537720,474.341553 
	C1006.186646,474.268463 1002.791443,476.113495 1001.525085,480.498596 
	C1001.270203,481.381195 1002.491882,482.690216 1003.926758,483.794220 
z"/>
<path fill="#2B292A" opacity="1.000000" stroke="none" 
	d="
M154.326889,484.603516 
	C156.452423,472.762909 164.538010,465.796967 175.734955,465.909363 
	C187.352859,466.025970 193.073822,472.807709 195.883728,490.447998 
	C185.817917,490.447998 175.841080,490.447998 165.385208,490.447998 
	C165.721130,495.180237 166.464783,498.715881 170.270309,500.791199 
	C174.348511,503.015259 179.175262,503.037689 181.846863,499.823700 
	C185.505859,495.421875 189.630112,496.686096 193.883118,496.337738 
	C193.255844,505.453003 183.197708,512.237610 172.998840,510.670715 
	C159.805847,508.643829 153.617310,500.212524 154.326889,484.603516 
M170.156204,475.546082 
	C168.373779,477.832764 166.591370,480.119446 164.078156,483.343689 
	C171.845367,483.343689 177.807907,483.343689 183.883606,483.343689 
	C181.629639,475.095428 177.947449,472.901062 170.156204,475.546082 
z"/>
<path fill="#2C2A2B" opacity="1.000000" stroke="none" 
	d="
M812.209595,501.630737 
	C813.632996,500.996368 815.208252,500.848785 815.677063,500.050995 
	C818.635010,495.017700 823.302856,496.519165 827.634094,496.482513 
	C827.299988,506.316254 816.056091,511.491638 807.743042,510.770721 
	C796.229126,509.772186 788.805969,502.131683 787.879456,490.367462 
	C786.934082,478.363312 793.200867,469.334320 804.416199,466.541748 
	C816.494324,463.534363 827.966553,471.938873 829.056763,484.593353 
	C829.593811,490.826874 829.593933,490.836975 823.318359,490.862061 
	C815.655762,490.892670 807.993103,490.900085 800.330505,490.938934 
	C800.022644,490.940491 799.715881,491.161621 799.409546,491.282959 
	C799.662781,499.361725 803.304626,502.445038 812.209595,501.630737 
M813.622559,475.681702 
	C805.592590,472.551086 800.566528,475.293793 799.512268,483.424744 
	C805.548218,483.424744 811.572327,483.424744 818.635437,483.424744 
	C816.852844,480.531799 815.516968,478.363861 813.622559,475.681702 
z"/>
<path fill="#2B292A" opacity="1.000000" stroke="none" 
	d="
M536.142212,504.858643 
	C530.652405,497.383240 528.751343,489.519958 531.251038,480.777893 
	C534.385681,469.815277 544.950989,464.336365 556.616638,466.287415 
	C569.390015,468.423706 574.703613,481.826935 573.429382,491.659668 
	C570.745422,512.370911 548.017761,515.289917 536.142212,504.858643 
M549.347046,474.581543 
	C541.905823,478.098633 538.955627,488.721863 543.105408,496.730164 
	C545.295288,500.956238 548.800537,502.594299 553.321655,502.059540 
	C557.510559,501.564087 560.479248,499.055176 561.180298,494.977325 
	C561.838928,491.146912 562.142151,487.057556 561.537109,483.251373 
	C560.480957,476.607422 557.016052,474.273773 549.347046,474.581543 
z"/>
<path fill="#2B292A" opacity="1.000000" stroke="none" 
	d="
M624.737915,485.139587 
	C624.730286,493.103882 624.723816,500.587036 624.704773,508.070129 
	C624.704407,508.210785 624.554626,508.351074 624.271851,508.847260 
	C620.922302,508.847260 617.352722,508.847260 613.165222,508.847260 
	C613.165222,500.169067 613.452515,491.403473 612.985168,482.678253 
	C612.850098,480.156677 611.108398,476.544128 609.092285,475.607147 
	C606.731995,474.510162 602.370239,474.737213 600.517395,476.315704 
	C598.391235,478.126953 597.288269,482.004486 597.107971,485.064941 
	C596.650269,492.835846 596.955994,500.651672 596.955994,508.812012 
	C593.210022,508.812012 589.656433,508.812012 585.849487,508.812012 
	C585.849487,495.133789 585.849487,481.412109 585.849487,467.432495 
	C589.240295,467.432495 592.485229,467.432495 595.908447,467.432495 
	C596.062866,468.925079 596.205750,470.306244 596.424255,472.418121 
	C600.777832,467.500000 605.699097,465.614960 611.453857,465.918701 
	C619.605164,466.348938 623.993835,471.041656 624.731018,480.170013 
	C624.851013,481.656647 624.741394,483.161835 624.737915,485.139587 
z"/>
<path fill="#2C2A2B" opacity="1.000000" stroke="none" 
	d="
M494.977570,495.724609 
	C492.575348,505.405151 486.128754,509.948761 477.068024,510.659668 
	C469.175964,511.278870 462.443573,508.490753 457.731934,501.739655 
	C452.181152,493.786102 453.537140,478.669067 460.445312,471.756317 
	C467.577118,464.619904 479.924103,463.850250 488.835205,469.986725 
	C492.714478,472.658112 494.528595,476.211548 494.610382,481.642365 
	C491.811005,481.642365 488.989410,481.852905 486.227661,481.538269 
	C485.129883,481.413239 483.726318,480.342865 483.219574,479.325500 
	C481.553040,475.979553 479.017456,474.269135 475.345032,474.387787 
	C471.265656,474.519531 468.014069,476.625305 467.222626,480.470367 
	C466.309143,484.908447 466.013275,489.646484 466.481476,494.146881 
	C466.936584,498.521301 469.700836,501.765991 474.634583,502.045105 
	C479.249908,502.306213 482.072998,499.839355 483.683472,495.720001 
	C483.920868,495.112732 484.144562,494.500122 484.465363,493.649200 
	C487.420135,493.649200 490.391754,493.559509 493.349152,493.724762 
	C493.941101,493.757843 494.478699,494.762665 494.977570,495.724609 
z"/>
<path fill="#2E2C2D" opacity="1.000000" stroke="none" 
	d="
M973.889038,490.935974 
	C973.888428,492.588715 974.015930,493.769196 973.865295,494.913055 
	C973.244385,499.628571 975.149414,501.839996 979.985657,501.375183 
	C980.596191,501.316528 981.237488,501.578400 982.060791,501.727203 
	C982.060791,504.297241 982.060791,506.724274 982.060791,510.170319 
	C977.718567,509.834534 973.504456,509.794159 969.395020,509.117645 
	C964.394043,508.294403 962.291748,504.814026 962.302917,499.890778 
	C962.321350,491.799011 962.307861,483.707153 962.307861,475.373871 
	C959.768433,475.188385 957.689636,475.036530 955.408325,474.869904 
	C955.408325,472.335693 955.408325,470.087158 955.408325,467.537323 
	C957.658447,467.333527 959.751099,467.143982 962.301514,466.912964 
	C962.301514,462.936249 962.301514,459.035248 962.301514,454.826050 
	C966.341919,454.826050 969.905334,454.826050 973.867432,454.826050 
	C973.867432,458.875671 973.867432,462.794739 973.867432,467.071594 
	C976.671875,467.071594 979.094421,467.071594 981.903748,467.071594 
	C981.903748,469.811432 981.903748,472.191864 981.903748,474.924835 
	C979.552673,474.924835 977.127808,474.924835 973.889282,474.924835 
	C973.889282,480.302063 973.889282,485.374451 973.889038,490.935974 
z"/>
<path fill="#302E2F" opacity="1.000000" stroke="none" 
	d="
M131.252197,470.001526 
	C131.252380,463.720154 131.252380,457.938354 131.252380,451.929626 
	C135.208771,451.929626 138.813461,451.929626 142.648788,451.929626 
	C142.648788,470.965668 142.648788,489.845428 142.648788,508.977844 
	C138.958038,508.977844 135.362244,508.977844 131.252014,508.977844 
	C131.252014,496.046356 131.252014,483.273743 131.252197,470.001526 
z"/>
<path fill="#302E2F" opacity="1.000000" stroke="none" 
	d="
M700.662964,472.000610 
	C700.662903,484.599152 700.662903,496.697845 700.662903,508.972198 
	C696.619995,508.972198 693.026245,508.972198 689.274048,508.972198 
	C689.274048,489.869354 689.274048,471.003906 689.274048,451.961761 
	C693.065674,451.961761 696.666931,451.961761 700.662964,451.961761 
	C700.662964,458.628723 700.662964,465.064758 700.662964,472.000610 
z"/>
<path fill="#2B292A" opacity="1.000000" stroke="none" 
	d="
M217.135040,472.041504 
	C217.503174,472.627289 218.167801,473.085480 218.234924,473.010315 
	C218.778168,472.401733 219.058609,471.356720 219.699127,471.069855 
	C223.641037,469.304626 227.656494,467.703644 231.647522,466.048065 
	C232.611755,469.277405 233.576004,472.506714 234.682480,476.212433 
	C232.526657,476.446350 231.445206,476.657684 230.362137,476.666290 
	C222.016602,476.732635 218.089142,480.647522 217.989578,489.214417 
	C217.914551,495.669861 217.974731,502.126892 217.974731,508.881348 
	C214.154175,508.881348 210.595795,508.881348 206.808426,508.881348 
	C206.808426,495.187866 206.808426,481.598358 206.808426,467.604248 
	C210.043991,467.604248 213.257507,467.604248 216.927536,467.604248 
	C216.996841,468.843933 217.075745,470.255371 217.135040,472.041504 
z"/>
<path fill="#292728" opacity="1.000000" stroke="none" 
	d="
M936.932983,469.811707 
	C937.492310,469.406403 937.756042,469.150787 938.063904,469.075531 
	C941.596741,468.211609 945.136169,467.375183 948.673828,466.531372 
	C949.189575,469.786896 949.705322,473.042419 950.227112,476.335846 
	C935.992981,477.381714 934.051331,479.547302 934.051147,493.505737 
	C934.051086,498.477814 934.051086,503.449890 934.051086,508.804596 
	C930.355286,508.804596 926.829163,508.804596 923.002319,508.804596 
	C923.002319,495.118774 923.002319,481.431366 923.002319,467.449890 
	C926.258179,467.449890 929.360535,467.449890 932.954712,467.449890 
	C933.114380,469.314362 933.291931,471.388123 933.513000,473.969849 
	C934.716309,472.468262 935.687134,471.256744 936.932983,469.811707 
z"/>
<path fill="#2B292A" opacity="1.000000" stroke="none" 
	d="
M254.908356,488.000000 
	C254.908356,495.133484 254.908356,501.767029 254.908356,508.798157 
	C251.242386,508.798157 247.702118,508.798157 243.792694,508.798157 
	C243.792694,495.213074 243.792694,481.536224 243.792694,467.531555 
	C247.387024,467.531555 250.935104,467.531555 254.908371,467.531555 
	C254.908371,474.303253 254.908371,480.901672 254.908356,488.000000 
z"/>
<path fill="#2A2829" opacity="1.000000" stroke="none" 
	d="
M513.990112,467.212952 
	C515.741150,467.214508 517.039673,467.214508 518.645752,467.214508 
	C518.645752,481.294891 518.645752,494.977081 518.645752,508.929077 
	C515.029297,508.929077 511.479187,508.929077 507.703033,508.929077 
	C507.703033,495.121735 507.703033,481.554779 507.703033,467.211365 
	C509.713837,467.211365 511.625732,467.211365 513.990112,467.212952 
z"/>
<path fill="#8ACEC4" opacity="1.000000" stroke="none" 
	d="
M406.453186,234.074478 
	C409.265167,232.992676 410.092102,230.853561 410.086273,227.433441 
	C409.965912,156.626724 409.990234,85.819763 409.982086,14.552181 
	C410.159637,14.084871 410.341034,14.078225 410.785431,14.373577 
	C411.235016,15.072397 411.421600,15.469220 411.631165,16.342300 
	C411.685120,72.939339 411.744995,129.060135 411.728882,185.180893 
	C411.724243,201.316635 411.500366,217.452301 411.377014,233.588013 
	C409.885895,233.770416 408.394775,233.952820 406.453186,234.074478 
z"/>
<path fill="#8FCDC4" opacity="1.000000" stroke="none" 
	d="
M410.222321,417.985168 
	C409.980438,370.958496 409.990540,324.014221 409.979614,277.069946 
	C409.979370,275.923462 409.745361,274.777069 409.334045,273.334167 
	C409.622559,271.596619 410.197388,270.155518 411.235779,269.288879 
	C411.711365,301.628113 411.686676,333.392944 411.749908,365.157593 
	C411.784943,382.773834 411.966888,400.389801 412.082611,418.005890 
	C412.082611,418.005890 411.790710,418.121979 411.639343,418.080750 
	C411.149200,418.048828 410.810425,418.058167 410.222321,417.985168 
z"/>
<path fill="#3F3D3E" opacity="1.000000" stroke="none" 
	d="
M25.819920,565.953857 
	C25.189476,570.834961 27.027664,575.584961 24.714468,579.710144 
	C24.239985,579.674011 23.765503,579.637878 23.291019,579.601746 
	C23.291019,568.831543 23.291019,558.061401 23.291019,547.312073 
	C25.257435,547.800232 25.257435,547.800232 26.007982,560.681152 
	C29.871901,560.681152 33.761913,560.681152 37.735252,560.681152 
	C39.491280,556.251343 36.470398,550.908813 40.761276,546.920044 
	C40.761276,557.812988 40.761276,568.705933 40.761276,579.598877 
	C40.305206,579.645935 39.849140,579.693054 39.393070,579.740173 
	C36.634892,574.757385 39.335258,568.889832 37.723804,563.283325 
	C34.419170,563.283325 31.122807,563.156616 27.850679,563.381897 
	C27.128721,563.431580 26.492626,564.728333 25.819920,565.953857 
z"/>
<path fill="#3D3B3C" opacity="1.000000" stroke="none" 
	d="
M307.222046,551.283264 
	C307.747864,549.510254 308.278778,548.200500 308.809692,546.890808 
	C309.918152,547.879944 311.494873,548.655762 312.058411,549.893066 
	C315.461334,557.364502 318.632477,564.941589 322.815979,572.289307 
	C322.815979,563.972534 322.815979,555.655762 322.815979,547.338989 
	C323.378876,547.150940 323.941772,546.962952 324.504669,546.774902 
	C324.977936,547.868652 325.849670,548.957947 325.862000,550.056824 
	C325.969910,559.685181 325.924438,569.315186 324.764557,580.021057 
	C323.491669,578.797485 321.730682,577.803650 321.028107,576.311523 
	C317.467438,568.749146 314.181519,561.057434 309.893738,553.593079 
	C309.893738,562.253418 309.893738,570.913757 309.893738,579.574097 
	C309.358795,579.668518 308.823853,579.762939 308.288879,579.857361 
	C307.928192,578.465576 307.272034,577.077271 307.255615,575.681458 
	C307.161865,567.704163 307.220337,559.725037 307.222046,551.283264 
z"/>
<path fill="#3E3C3D" opacity="1.000000" stroke="none" 
	d="
M593.307495,547.150391 
	C594.355408,548.129456 595.578308,549.315613 595.609924,550.532776 
	C595.786865,557.358826 595.675415,564.192444 595.664551,571.023438 
	C595.658386,574.854614 596.327087,578.080933 601.272156,578.019409 
	C605.717834,577.964111 607.383545,576.149414 607.418457,571.051086 
	C607.467529,563.888367 607.476624,556.724609 607.634888,549.564209 
	C607.654846,548.656128 608.471069,547.765564 608.918396,546.866882 
	C609.418884,547.709656 610.335632,548.543274 610.354492,549.396729 
	C610.516235,556.724426 610.736389,564.062988 610.497375,571.383850 
	C610.287903,577.798218 607.385681,580.184692 600.953857,580.069153 
	C595.036316,579.962830 592.800537,577.776001 592.727783,571.341064 
	C592.637573,563.353149 592.850403,555.361755 593.307495,547.150391 
z"/>
<path fill="#3E3C3D" opacity="1.000000" stroke="none" 
	d="
M460.154175,579.491333 
	C456.631409,579.623962 453.508453,579.623962 450.170380,579.623962 
	C450.170380,568.601990 450.170380,558.018738 450.170380,547.487915 
	C450.557556,547.261902 450.832214,546.959106 451.094482,546.969482 
	C456.723114,547.192322 463.649323,544.889526 466.900238,551.209717 
	C470.740112,558.674744 470.387054,567.030701 467.076385,574.737549 
	C466.179077,576.826416 462.796082,577.847473 460.154175,579.491333 
M452.963623,559.526733 
	C452.963623,565.402161 452.963623,571.277527 452.963623,577.083984 
	C463.271240,577.674622 465.980408,575.217285 466.195465,565.788818 
	C466.237091,563.964539 466.214325,562.138245 466.189545,560.313293 
	C466.059418,550.725708 462.737823,547.988281 452.963623,549.712280 
	C452.963623,552.615967 452.963623,555.578247 452.963623,559.526733 
z"/>
<path fill="#3F3D3E" opacity="1.000000" stroke="none" 
	d="
M1017.084167,547.958008 
	C1021.162170,545.258911 1025.104736,545.248840 1028.414429,548.093018 
	C1030.030151,549.481628 1030.556274,552.138367 1031.575562,554.221130 
	C1030.933228,554.526917 1030.290771,554.832764 1029.648315,555.138550 
	C1029.144653,554.204224 1028.847168,553.030273 1028.095825,552.383850 
	C1026.362305,550.892334 1024.335571,548.516296 1022.564026,548.629517 
	C1020.690247,548.749207 1017.874634,551.099243 1017.481934,552.911011 
	C1017.041687,554.942261 1018.242981,558.123535 1019.841675,559.604248 
	C1021.909363,561.519531 1025.245728,561.979736 1027.733154,563.546875 
	C1031.690796,566.040283 1032.910645,569.863037 1031.557495,574.325745 
	C1030.117920,579.073669 1027.165161,580.537598 1020.926025,580.025024 
	C1016.314697,579.646118 1014.294983,576.733276 1013.602478,572.611084 
	C1013.467346,571.806580 1014.117126,570.870117 1015.568359,570.054749 
	C1016.003052,571.349304 1016.450012,572.639893 1016.870056,573.939209 
	C1017.892578,577.102234 1020.296570,578.960327 1023.268066,577.841003 
	C1025.500488,577.000122 1028.279907,574.693298 1028.648804,572.648254 
	C1029.014282,570.621582 1026.917603,567.918457 1025.403076,565.882141 
	C1024.632935,564.846558 1022.754883,564.654541 1021.401001,564.030396 
	C1013.428650,560.354919 1012.071716,555.698059 1017.084167,547.958008 
z"/>
<path fill="#3F3D3E" opacity="1.000000" stroke="none" 
	d="
M891.156189,579.702515 
	C889.654053,576.599609 888.523987,573.568909 887.229919,570.098450 
	C884.489319,570.098450 881.234009,570.098450 877.954834,570.098450 
	C875.606873,572.852661 877.921997,578.138245 872.082092,580.218811 
	C875.055603,569.113892 877.768982,558.867065 880.599670,548.652710 
	C880.796692,547.941772 881.789612,547.200134 882.554626,546.989868 
	C883.032471,546.858459 884.198975,547.585938 884.339722,548.117615 
	C887.101135,558.551758 889.757935,569.013489 892.396851,579.479553 
	C892.402832,579.503357 891.830444,579.673096 891.156189,579.702515 
M883.483521,553.525513 
	C883.163879,552.947449 882.844299,552.369324 882.383301,551.535583 
	C881.084961,556.767700 879.837646,561.794189 878.420471,567.505066 
	C881.670776,567.352051 884.133240,567.236145 886.662109,567.117126 
	C885.559326,562.279358 884.642822,558.258789 883.483521,553.525513 
z"/>
<path fill="#3D3B3C" opacity="1.000000" stroke="none" 
	d="
M165.264786,561.220825 
	C165.823883,557.714966 166.119186,554.572876 167.035110,551.623413 
	C168.192993,547.894897 171.394058,545.493835 174.948135,546.305847 
	C177.696304,546.933777 181.185623,549.386963 182.133499,551.872253 
	C184.940994,559.233521 184.853195,567.038452 182.375839,574.627502 
	C181.247971,578.082642 178.843948,579.962158 174.987091,580.119629 
	C170.884750,580.287292 168.008774,578.466553 167.078995,574.775146 
	C166.008469,570.525085 165.837982,566.048401 165.264786,561.220825 
M168.223724,563.474670 
	C168.750992,567.195129 168.862839,571.049744 170.000229,574.573242 
	C170.487854,576.083862 173.130127,577.824219 174.753418,577.785400 
	C176.412186,577.745789 179.359283,575.730042 179.432709,574.447144 
	C179.859879,566.984070 179.843201,559.466919 179.365448,552.007141 
	C179.279678,550.668030 176.239777,548.411072 174.748749,548.550903 
	C172.912430,548.723083 170.365143,550.637939 169.740860,552.378967 
	C168.606049,555.543823 168.663940,559.136292 168.223724,563.474670 
z"/>
<path fill="#0C1B1D" opacity="1.000000" stroke="none" 
	d="
M411.505371,233.711700 
	C411.500366,217.452301 411.724243,201.316635 411.728882,185.180893 
	C411.744995,129.060135 411.685120,72.939339 411.870911,16.308403 
	C412.087677,15.798248 412.566101,15.722556 412.566101,15.722555 
	C412.710602,18.105288 412.980408,20.487974 412.981323,22.870762 
	C413.007568,91.101479 413.010712,159.332199 412.991058,227.562927 
	C412.990479,229.532974 412.701782,231.502914 412.234680,233.759033 
	C411.921875,234.045151 411.633698,233.835373 411.505371,233.711700 
z"/>
<path fill="#302E2F" opacity="1.000000" stroke="none" 
	d="
M746.008423,564.962952 
	C743.445312,564.543396 740.882202,564.123779 737.130676,563.509705 
	C737.130676,569.336182 737.130676,574.500916 737.130676,579.665588 
	C736.529968,579.644470 735.929199,579.623291 735.328491,579.602173 
	C735.328491,568.897949 735.328491,558.193726 735.328491,546.960327 
	C740.059143,547.252319 745.778992,545.158691 749.556641,550.261963 
	C752.306091,553.976318 751.274231,558.132629 747.798035,561.806396 
	C746.420044,561.655273 745.849731,561.488281 745.565430,561.079468 
	C746.427246,557.816040 748.456787,553.744812 747.219971,552.031799 
	C745.583130,549.764648 741.390625,549.342590 737.746826,547.911621 
	C737.746826,553.541626 737.746826,557.564636 737.746826,561.960754 
	C740.396362,561.787170 742.672791,561.638062 745.208618,561.871460 
	C745.648254,563.156982 745.828369,564.059937 746.008423,564.962952 
z"/>
<path fill="#0C1B1D" opacity="1.000000" stroke="none" 
	d="
M412.363434,417.698639 
	C411.966888,400.389801 411.784943,382.773834 411.749908,365.157593 
	C411.686676,333.392944 411.711365,301.628113 411.591461,269.402832 
	C411.581329,259.899567 411.679047,250.856888 411.901550,241.408569 
	C412.355164,244.820236 412.902710,248.633804 412.967957,252.455597 
	C413.110138,260.785858 413.004303,269.120331 413.004089,277.453064 
	C413.002838,322.283325 413.007050,367.113586 412.987305,411.943848 
	C412.986481,413.759735 412.763641,415.575531 412.363434,417.698639 
z"/>
<path fill="#2E2C2D" opacity="1.000000" stroke="none" 
	d="
M254.973267,459.056763 
	C251.626282,462.247314 248.086182,463.188965 244.066772,461.946625 
	C247.199249,453.046722 252.745255,448.426575 262.130615,451.335571 
	C259.996063,453.658539 257.623322,456.240753 254.973267,459.056763 
z"/>
<path fill="#302E2F" opacity="1.000000" stroke="none" 
	d="
M518.954468,458.817261 
	C515.426941,460.083618 511.902832,460.894379 507.803741,461.837402 
	C507.803741,457.882019 507.803741,455.029022 507.803741,451.925842 
	C511.440460,451.925842 515.000793,451.925842 518.957825,451.925842 
	C518.957825,454.158569 518.957825,456.260101 518.954468,458.817261 
z"/>
<path fill="#E4F7F4" opacity="1.000000" stroke="none" 
	d="
M249.005310,17.442039 
	C258.187500,18.842934 267.403473,20.545536 276.567413,22.493151 
	C279.940704,23.210070 283.191040,24.505459 286.725464,25.825918 
	C282.737701,25.673697 278.491882,25.419825 274.312958,24.749161 
	C267.394897,23.638905 260.488495,22.402613 253.649155,20.893246 
	C251.963165,20.521168 250.554596,18.892092 249.005310,17.442039 
z"/>
<path fill="#3F3D3E" opacity="1.000000" stroke="none" 
	d="
M746.240784,565.304932 
	C745.828369,564.059937 745.648254,563.156982 745.345093,561.935669 
	C745.222046,561.617310 745.279480,561.321228 745.279480,561.321228 
	C745.849731,561.488281 746.420044,561.655273 747.432739,561.886963 
	C749.082031,567.699341 750.288940,573.446960 751.495850,579.194641 
	C751.011963,579.435608 750.528076,579.676575 750.044189,579.917603 
	C749.354675,578.886658 748.261536,577.932068 748.049500,576.810913 
	C747.352051,573.122070 746.973938,569.372864 746.240784,565.304932 
z"/>
<path fill="#E4F7F4" opacity="1.000000" stroke="none" 
	d="
M163.707703,59.696365 
	C159.211609,61.545750 154.474457,63.225998 149.357513,64.883133 
	C150.335678,59.376492 154.975235,59.544327 159.147369,59.084103 
	C160.553726,58.928970 162.025040,59.362656 163.707703,59.696365 
z"/>
<path fill="#E4F7F4" opacity="1.000000" stroke="none" 
	d="
M289.061554,27.235922 
	C294.248352,28.695223 299.417114,30.560349 304.790009,32.713543 
	C299.874268,31.815546 294.747070,30.658442 289.651459,29.375967 
	C289.324066,29.293566 289.240509,28.242302 289.061554,27.235922 
z"/>
<path fill="#E4F7F4" opacity="1.000000" stroke="none" 
	d="
M362.820312,115.102074 
	C362.135315,116.709572 361.073730,118.316551 359.539795,120.638573 
	C356.831024,118.068108 354.510529,115.866058 352.027466,113.367111 
	C353.498260,113.608215 355.098480,114.323456 356.773865,114.636765 
	C358.627960,114.983482 360.550812,114.962440 362.820312,115.102074 
z"/>
<path fill="#E4F7F4" opacity="1.000000" stroke="none" 
	d="
M376.899475,102.118637 
	C376.111176,103.448135 374.948120,104.760620 373.468018,106.187271 
	C374.275604,104.901505 375.400177,103.501564 376.899475,102.118637 
z"/>
<path fill="#E4F7F4" opacity="1.000000" stroke="none" 
	d="
M172.763367,57.055641 
	C171.365891,57.708790 169.546188,58.321156 167.358490,58.913437 
	C168.774048,58.267189 170.557602,57.641029 172.763367,57.055641 
z"/>
<path fill="#E4F7F4" opacity="1.000000" stroke="none" 
	d="
M381.891693,97.082634 
	C381.657837,97.964195 381.076660,98.808014 380.194641,99.746056 
	C380.444031,98.908485 380.994202,97.976692 381.891693,97.082634 
z"/>
<path fill="#E4F7F4" opacity="1.000000" stroke="none" 
	d="
M370.902039,108.126266 
	C370.756409,108.769356 370.241364,109.405754 369.434235,110.166237 
	C369.605682,109.566742 370.069183,108.843163 370.902039,108.126266 
z"/>
<path fill="#71C4B7" opacity="1.000000" stroke="none" 
	d="
M412.713562,15.535549 
	C412.566101,15.722556 412.087677,15.798248 411.847931,15.832146 
	C411.421600,15.469220 411.235016,15.072397 411.047485,14.447408 
	C411.599823,14.278539 412.153137,14.337835 412.849609,14.643966 
	C412.992767,14.890799 412.861023,15.348543 412.713562,15.535549 
z"/>
<path fill="#FBF9FA" opacity="1.000000" stroke="none" 
	d="
M864.518555,232.462860 
	C868.307373,236.771637 871.843384,240.829819 875.877563,245.459717 
	C837.498413,245.459717 799.952209,245.459717 762.020752,245.459717 
	C762.020752,202.145844 762.020752,158.932434 762.020752,114.904472 
	C766.723206,120.169029 771.111267,124.985123 775.393311,129.893677 
	C787.912598,144.244904 800.404846,158.619843 812.879211,173.010132 
	C826.311462,188.505173 839.704224,204.034409 853.130249,219.534836 
	C856.812622,223.786224 860.552368,227.987808 864.518555,232.462860 
z"/>
<path fill="#F2F0F1" opacity="1.000000" stroke="none" 
	d="
M885.170471,469.328522 
	C885.607422,468.389954 885.924805,467.815918 886.659912,466.486053 
	C889.147522,473.555267 891.434875,480.055420 893.844055,486.901672 
	C888.892090,486.901672 884.326416,486.901672 879.160461,486.901672 
	C881.171936,481.025055 883.111389,475.359039 885.170471,469.328522 
z"/>
<path fill="#F6F4F5" opacity="1.000000" stroke="none" 
	d="
M763.942505,497.811890 
	C758.277466,504.349152 749.600037,503.226013 747.461731,495.422729 
	C746.182190,490.753693 746.648193,485.359039 747.407593,480.457520 
	C748.005798,476.596008 751.572693,474.584137 755.499207,474.389740 
	C759.866760,474.173492 763.229492,476.165527 764.842163,480.332275 
	C767.075317,486.101898 767.016357,491.873260 763.942505,497.811890 
z"/>
<path fill="#F2F0F1" opacity="1.000000" stroke="none" 
	d="
M648.054626,496.295197 
	C650.707825,494.242767 653.168457,492.205505 655.990051,491.048370 
	C658.349426,490.080811 661.131042,490.142761 663.728577,489.748383 
	C665.184692,498.007385 662.983398,502.044098 656.481262,502.884583 
	C651.299072,503.554474 648.530029,501.528137 648.054626,496.295197 
z"/>
<path fill="#EDEBEC" opacity="1.000000" stroke="none" 
	d="
M415.381775,495.560608 
	C417.982971,493.772858 420.304321,491.973419 422.933014,491.034424 
	C425.640503,490.067322 428.647491,489.938751 431.509369,489.445709 
	C432.071442,499.137909 429.703979,502.679993 422.399902,502.904572 
	C417.337860,503.060272 415.375702,501.148804 415.381775,495.560608 
z"/>
<path fill="#EDEBEC" opacity="1.000000" stroke="none" 
	d="
M91.253914,500.678101 
	C89.337128,495.137878 90.057152,493.235779 94.857147,491.833862 
	C98.584900,490.745087 102.464684,490.176819 106.521210,489.325958 
	C106.624557,493.547882 107.459084,498.217041 103.385399,500.979645 
	C99.756294,503.440796 95.472275,504.364349 91.253914,500.678101 
z"/>
<path fill="#F2F0F1" opacity="1.000000" stroke="none" 
	d="
M277.664856,498.732666 
	C277.020203,494.026611 279.648376,492.268372 283.200287,491.465027 
	C286.693909,490.674805 290.246002,490.143311 293.903442,489.474304 
	C293.828796,494.192352 294.890350,499.637390 288.911011,501.990997 
	C284.743927,503.631287 280.404510,504.136078 277.664856,498.732666 
z"/>
<path fill="#E8E6E7" opacity="1.000000" stroke="none" 
	d="
M1003.479736,483.798431 
	C1002.491882,482.690216 1001.270203,481.381195 1001.525085,480.498596 
	C1002.791443,476.113495 1006.186646,474.268463 1010.537720,474.341553 
	C1015.356079,474.422485 1017.833313,477.074768 1019.124084,483.794220 
	C1013.958557,483.794220 1008.942688,483.794220 1003.479736,483.798431 
z"/>
<path fill="#E8E6E7" opacity="1.000000" stroke="none" 
	d="
M170.505005,475.373535 
	C177.947449,472.901062 181.629639,475.095428 183.883606,483.343689 
	C177.807907,483.343689 171.845367,483.343689 164.078156,483.343689 
	C166.591370,480.119446 168.373779,477.832764 170.505005,475.373535 
z"/>
<path fill="#E8E6E7" opacity="1.000000" stroke="none" 
	d="
M813.901855,475.938782 
	C815.516968,478.363861 816.852844,480.531799 818.635437,483.424744 
	C811.572327,483.424744 805.548218,483.424744 799.512268,483.424744 
	C800.566528,475.293793 805.592590,472.551086 813.901855,475.938782 
z"/>
<path fill="#F6F5F6" opacity="1.000000" stroke="none" 
	d="
M549.722290,474.480957 
	C557.016052,474.273773 560.480957,476.607422 561.537109,483.251373 
	C562.142151,487.057556 561.838928,491.146912 561.180298,494.977325 
	C560.479248,499.055176 557.510559,501.564087 553.321655,502.059540 
	C548.800537,502.594299 545.295288,500.956238 543.105408,496.730164 
	C538.955627,488.721863 541.905823,478.098633 549.722290,474.480957 
z"/>
<path fill="#F9F7F8" opacity="1.000000" stroke="none" 
	d="
M452.963623,559.033630 
	C452.963623,555.578247 452.963623,552.615967 452.963623,549.712280 
	C462.737823,547.988281 466.059418,550.725708 466.189545,560.313293 
	C466.214325,562.138245 466.237091,563.964539 466.195465,565.788818 
	C465.980408,575.217285 463.271240,577.674622 452.963623,577.083984 
	C452.963623,571.277527 452.963623,565.402161 452.963623,559.033630 
z"/>
<path fill="#E8E6E7" opacity="1.000000" stroke="none" 
	d="
M883.604919,553.881836 
	C884.642822,558.258789 885.559326,562.279358 886.662109,567.117126 
	C884.133240,567.236145 881.670776,567.352051 878.420471,567.505066 
	C879.837646,561.794189 881.084961,556.767700 882.383301,551.535583 
	C882.844299,552.369324 883.163879,552.947449 883.604919,553.881836 
z"/>
<path fill="#F4F2F3" opacity="1.000000" stroke="none" 
	d="
M168.223907,563.012512 
	C168.663940,559.136292 168.606049,555.543823 169.740860,552.378967 
	C170.365143,550.637939 172.912430,548.723083 174.748749,548.550903 
	C176.239777,548.411072 179.279678,550.668030 179.365448,552.007141 
	C179.843201,559.466919 179.859879,566.984070 179.432709,574.447144 
	C179.359283,575.730042 176.412186,577.745789 174.753418,577.785400 
	C173.130127,577.824219 170.487854,576.083862 170.000229,574.573242 
	C168.862839,571.049744 168.750992,567.195129 168.223907,563.012512 
z"/>
<path fill="#EDEBEC" opacity="1.000000" stroke="none" 
	d="
M745.085571,561.553101 
	C742.672791,561.638062 740.396362,561.787170 737.746826,561.960754 
	C737.746826,557.564636 737.746826,553.541626 737.746826,547.911621 
	C741.390625,549.342590 745.583130,549.764648 747.219971,552.031799 
	C748.456787,553.744812 746.427246,557.816040 745.565430,561.079468 
	C745.279480,561.321228 745.222046,561.617310 745.085571,561.553101 
z"/>
</svg>